<svg xmlns="http://www.w3.org/2000/svg" viewBox="0 0 261.18 233.53"><defs><style>.cls-1{isolation:isolate;}.cls-2,.cls-3{fill:#52057b;}.cls-3{opacity:0.61;mix-blend-mode:screen;}.cls-4{opacity:0.2;}.cls-15,.cls-16,.cls-17,.cls-18,.cls-19,.cls-4{mix-blend-mode:multiply;}.cls-5{fill:#892cdc;}.cls-6{fill:#b85bf7;}.cls-7{fill:#ebdff7;}.cls-10,.cls-14,.cls-21,.cls-8{fill:none;stroke-miterlimit:10;}.cls-8{stroke:#892cdc;}.cls-9{fill:#f39c9c;}.cls-10{stroke:#d9b7f9;}.cls-11{fill:#d9b7f9;}.cls-12{fill:#0b2042;}.cls-13,.cls-17{fill:#fff;}.cls-14{stroke:#52057b;}.cls-15{opacity:0.1;}.cls-18,.cls-20{fill:#a2a9ad;}.cls-21{stroke:#b85bf7;}.cls-22{opacity:0.66;}</style></defs><g class="cls-1"><g id="Layer_2" data-name="Layer 2"><g id="OBJECTS"><text/><path class="cls-2" d="M177.4,191.09l0,1.29c-.17,8.46-.63,14.76-.85,17.12,0,0,0,.07,0,.09a16.2,16.2,0,0,1-.37,2.23,25.7,25.7,0,0,1-5.94,10.94,30.8,30.8,0,0,1-13.61,8.89c-.21.07-.44.13-.69.19a32.65,32.65,0,0,1-4.61.72h0c-1.36.15-2.89.26-4.55.35-1.13.06-2.31.12-3.54.16l-1.66.06h0c-3,.09-6.3.12-9.72.12-9.05,0-19.09-.26-27.87-.56-.46,0-.92,0-1.37,0-5.54.18-14.86.31-25.35.41h-.11c-2.75,0-5.57.06-8.43.07h-.45l-3.51,0H63.8l-15.14.08c-9.6,0-17.55-6.66-18.15-15.25-.27-3.9-.48-7.24-.6-8.44C29.1,201.22,25,139.36,44.14,112c8.14-11.64,23.08-16.43,37.56-18.09.88-.1,1.76-.19,2.63-.26a126.09,126.09,0,0,1,12.83-.47c1.25,0,2.48,0,3.67.09l1.46,0c.62,0,1.23,0,1.84,0,1,0,2.06-.09,3.14-.12a121.68,121.68,0,0,1,21.86,1.32,73,73,0,0,1,14.12,3.63c.75.28,1.49.57,2.22.89,6.74,2.86,12.66,7,16.82,13,8.88,12.71,12.75,32.88,14.27,51.67.34,4.14.56,8.22.7,12.14.05,1.35.08,2.67.11,4C177.45,183.81,177.45,187.62,177.4,191.09Z"/><path class="cls-2" d="M154.73,122.54c-9.6-16.42-31.5-18.06-45.64-17.2-14.15-.86-36,.78-45.64,17.2-14.77,25.24-11.63,82.33-11,90.05s6.6,17,15.4,20.35c5.34,2,26.28-3,41.61-3.64,15.32.65,35.52,5.67,40.87,3.64,8.79-3.33,14.76-12.63,15.39-20.35S169.49,147.78,154.73,122.54Z"/><path class="cls-3" d="M51.76,110c-4.84,4.31-8.88,11.06-8.29,17.31.14,1.49.73,3.17,2.27,3.75,3.52,1.33,5.14-2.52,5.83-4.87a35.92,35.92,0,0,1,4.81-10.2c1.33-2,4.63-5.18,2.45-7.54C56.9,106.32,54.08,107.87,51.76,110Z"/><path class="cls-3" d="M68.59,100c-3.18.55-6.44,2.17-7.35,4.63a1.62,1.62,0,0,0,.39,1.89c1.45,1.25,3,.17,3.76-.55a15.16,15.16,0,0,1,4.3-2.75c1-.43,3.24-.91,2.63-2.26C71.79,99.8,70.12,99.76,68.59,100Z"/><path class="cls-4" d="M176.59,176.1l.67-.29a12.19,12.19,0,0,0,1.21-.62c-.62-3.86-1.25-7.71-1.91-11.52-4-23.46-9.23-45.19-21.22-55.88-4.34-3.88-20.65-7.5-20.65-7.5l.05.12h-.06s0-.08,0-.12c-.19-.06-.37-.14-.55-.21a6.38,6.38,0,0,0-3.49-3.45A6.39,6.39,0,0,1,134,100a8,8,0,0,1-4.88-5.51,121.68,121.68,0,0,0-21.86-1.32,10.76,10.76,0,0,1-.83,1.79A14,14,0,0,0,102,98.64a7,7,0,0,1-.79.2s-.61.06-1.67.2a6.76,6.76,0,0,1,.2-.93c.06-.25.16-.57.27-.92a15.11,15.11,0,0,0,.85-3.92c-1.19,0-2.42-.08-3.67-.09-.53.82-1.09,1.84-1.7,3a17.16,17.16,0,0,0-1.24,3.62c-8.77,1.4-23.33,4.48-28.66,9.94-12.67,13-16.58,32.67-19.74,70.65v0c-.18,1.71,1,4.46,6,4a14.58,14.58,0,0,0,2-.29,39.3,39.3,0,0,0,4.7,11.7c-2.56,14.51-1.94,27.22,9.29,27.3a25.2,25.2,0,0,0-3.67,7.92,11.79,11.79,0,0,0-.31,2.12c0,.11,0,.22,0,.33h93.12l-1-1.69-.84-1.42L150.62,223s-5-11.12-5.37-32.05a54.83,54.83,0,0,1,1.08-7.33c2.19,9.17,8,30,17.25,36.59a10.66,10.66,0,0,0,3.83,1.81,15.14,15.14,0,0,0,2.79.75,25.7,25.7,0,0,0,5.94-10.94,16.2,16.2,0,0,0,.37-2.23s0-.06,0-.09c.22-2.36.68-8.66.85-17.12l0-1.29c0-3.47,0-7.28,0-11.3C177.11,178.58,176.85,177.34,176.59,176.1Z"/><path class="cls-5" d="M53,180.41c-.21,2.05,1.49,5.57,9.32,3.42s1.4-15,1.4-15l-7.38,4.92Z"/><path class="cls-6" d="M82.76,158.93s-7-4.68-7.06-3.56c-.19,9.51-24.83,67.61-.76,67.79,15.61,1.89,82.83-.18,82.83-.18s-5.26-11.6-5.39-33.4c0-9.06-16.36-32.35-16.36-32.35"/><path class="cls-7" d="M150.51,170.21s7.64,39.46,22.05,42.8c18.68,7,46.9-26.06,62.54-31.75,3.58-1.31-5.06-16.8-9.53-13.59-9.37,6.73-23.21,10.54-39.39,20.45-.53-2.76-9.1-42.54-9.87-47.76C175.23,132.94,150.51,170.21,150.51,170.21Z"/><path class="cls-6" d="M159.22,130.48s8.74,21.08-2.34,42.4c-5.45,13.28-6.06,24.49-2.29,44.2-27.41.23-71.83-12.1-71.83-12.1V147.9l29.48-47.61,29.65.12Z"/><path class="cls-6" d="M141.84,100.29s16.31,3.62,20.65,7.49c13.94,12.44,18.7,39.77,23.13,67.41-5.87,3.44-32,9.28-40.81,7.74s2-70.12,2-70.12Z"/><path class="cls-8" d="M159.22,129c3.8,9.52,4.23,20.89,1.94,30.78-2.25,9.71-8.13,18.16-8.65,28.34"/><path d="M74.94,223.16s-3.93,5.43-4,10.36h93.11L157.77,223Z"/><path class="cls-9" d="M186.48,187.9c-1.66,1.68-3.38,3.14-5,4.72a27.21,27.21,0,0,0-2.25,2.44,9,9,0,0,0-1.64,2.9,5.38,5.38,0,0,1,.74-3.49,11.91,11.91,0,0,1,2.19-2.83,17.1,17.1,0,0,1,2.77-2.19A14,14,0,0,1,186.48,187.9Z"/><path class="cls-7" d="M219.87,173.14c11.58-9.8,7.12-11.44,17.89-16.59,5.43-2.58,3.93,2.36.38,5.93s-2.48,4,1.55,3.18,6.31-3.58,12.09-7.39c.86-.57,3.15-.22,2.39.75,1.16-.47,2.83,1.23,1.59,2.94,1-.35,1.74,1.35.51,3.48,1.46-.15.77,3.2-2.42,6.65-3.82,4.22-6,7.73-20.3,9.36-2.18,1-8.14-.81-8.94-.3C213.87,190.21,217.3,175.31,219.87,173.14Z"/><path class="cls-10" d="M233.68,166.34s2.73,2.74.83,10.52"/><path class="cls-10" d="M254.26,158.93s-6.64,6.64-10.1,8.1"/><path class="cls-10" d="M255.76,162s-5.87,6-9.84,7.44"/><path class="cls-10" d="M256.27,165.44s-4.52,5.39-9.6,6.8"/><path class="cls-7" d="M60.91,142.45s-11.37,63.34,23.64,63.47c6.08.25,12.74-6.06,18.66-15.62L98.14,183l-14-17.14Z"/><path class="cls-6" d="M126.65,115.3s-4.34,8-9.91,18l-.8,1.41h0c-8.87,15.81-20.41,35.68-22.86,36.56a46.52,46.52,0,0,0-13.54-1.1h-.13l-.65.05h-.17A48.36,48.36,0,0,0,60.1,175.3l-.07,0-.58.32-.07,0A26.9,26.9,0,0,0,53,180.53c3.16-38.07,7.07-57.78,19.75-70.79,5.33-5.46,19.89-8.54,28.66-9.94.26,0,.5-.09.75-.12h0c1.5-.24,2.8-.42,3.81-.55l.72-.09c1.06-.14,1.67-.2,1.67-.2l.31.28,0,0,.48.43,0,0,10.8,9.7.55.5Z"/><path class="cls-8" d="M53,180.53s12-15.14,43.69-8.47c0,0,.93-25.5-2.17-38.67"/><path class="cls-7" d="M115.35,82.88s2,14.12-7,16c3.78,8.08,11.51,16.73,22.49,15.18s10.85-9.53,11-13.73c-4.39-1.49-7-5.23-5.72-13.83A90,90,0,0,1,115.35,82.88Z"/><path class="cls-2" d="M165.3,64.05c-.94,7.54-6.89,13-13.3,12.21s-10.82-7.56-9.88-15.1S149,48.15,155.41,49,166.24,56.51,165.3,64.05Z"/><path class="cls-5" d="M163.6,63.84c-.94,7.54-6.89,13-13.29,12.21s-10.83-7.56-9.89-15.1,6.89-13,13.29-12.21S164.54,56.3,163.6,63.84Z"/><path d="M152.91,65.41c4.67-7.82,7-17.39,4.66-26.2-4.84-18.46-25.47-28-43.26-23.13a35.65,35.65,0,0,0-7.76,3.17q-1.47.83-2.88,1.77c-6.46,4.36-9.55,13.31-10.42,20.75-1.14,9.74,1.89,24.54,11.66,29.32"/><path class="cls-7" d="M154.41,63.63s.35,31.54-29.62,27.05c-15.71-3.16-22.59-16-21.07-26.24-3.89-1.12-7.54-12.93-7.54-12.93l8-11.14s4.64-7.83,6.11-7.66l16.34,1.9Z"/><path d="M154.3,65.32S128.94,61.57,121,41.26c-5.16,8.23-6.83,12-12.47,13.37-2.66-5.26-13,.77-4.89,8.61-13.13-2.56-7.31-23.92-7.31-23.92l7.55-14.22,22.46-2.84s14.84-1.8,18.62,5.62,9.14,13.39,10.4,18.56C156.49,51,154.3,65.32,154.3,65.32Z"/><path class="cls-11" d="M131.71,66c.28,1.43,2.22,2.14,1.85,3.77a2.74,2.74,0,0,1-2.35,1.8.12.12,0,0,1-.08-.23c1.28-.49,1.75-1.64,1.42-3.46a6.09,6.09,0,0,1-.64-.87,1.89,1.89,0,0,1-.28-1,0,0,0,1,1,.08,0Z"/><path class="cls-12" d="M141.81,58.32c2.18-1.43,6.83-1.34,7.51,1.78,0,.2-.24.22-.32.07-1.43-2.73-4.58-2.55-7.12-1.72-.08,0-.15-.08-.07-.13Z"/><path class="cls-12" d="M125.81,56.73c-3.28-3-7.81-1.91-11.22.15-.14.08-.32-.13-.21-.26,2.77-3,8.85-3.06,11.63-.1.11.12-.08.33-.2.21Z"/><path class="cls-11" d="M119,70.37a3,3,0,0,0-.61-3,8.19,8.19,0,0,0-6.56-2.82,3.2,3.2,0,0,0-2.67,1.36,3.37,3.37,0,0,0-.4,1.85,5.61,5.61,0,0,0,4,5.13C114.9,73.41,118.12,72.55,119,70.37Z"/><path class="cls-11" d="M150.52,72.29a3,3,0,0,0-.26-2.6,4.45,4.45,0,0,0-4.37-2.11,2.47,2.47,0,0,0-1.9,1.33,3.79,3.79,0,0,0-.38,1.63c-.06,2,1,3.88,2.51,4.26A4.07,4.07,0,0,0,150.52,72.29Z"/><path class="cls-12" d="M145.51,62.85c-.1,1.81-.73,3.42-2.71,3.55a1.49,1.49,0,0,1-1.36-1.17c-.22-1.07.39-1.6.51-2.59.27-2.25,3.69-2.11,3.56.21Z"/><path class="cls-13" d="M144.79,63.44c0,.48-.2.9-.71.93a.38.38,0,0,1-.36-.3c-.06-.28.1-.42.13-.68a.47.47,0,0,1,.94,0Z"/><path class="cls-12" d="M122,60.51c0,2.09-.52,4-2.78,4.34a1.72,1.72,0,0,1-1.69-1.22c-.35-1.21.31-1.87.35-3,.1-2.63,4-2.77,4.12-.1Z"/><path class="cls-13" d="M121.23,61.26c0,.55-.14,1.05-.73,1.14a.45.45,0,0,1-.44-.32c-.1-.32.08-.49.09-.79a.54.54,0,0,1,1.08,0Z"/><path class="cls-5" d="M137.4,77.68c0,1.28-2,6.88-6.55,7.08-3.84.18-9.84-4.37-8.09-8.44C123.74,74.83,137.34,76.4,137.4,77.68Z"/><path class="cls-11" d="M122.81,79.51a4.59,4.59,0,0,1,2.6-.85,12.72,12.72,0,0,1,6.14,1,9.28,9.28,0,0,1,3.56,2.9,6.05,6.05,0,0,1-4.26,2.19C128,84.89,124,82.44,122.81,79.51Z"/><path class="cls-5" d="M96.7,54.86a32.82,32.82,0,0,1,1.23-12.23,31.43,31.43,0,0,1,2.27-5.86,29,29,0,0,1,3.43-5.38,29.41,29.41,0,0,1,4.56-4.57,28.8,28.8,0,0,1,5.55-3.36,26.92,26.92,0,0,1,6.13-2,32.34,32.34,0,0,1,6.33-.79,41.22,41.22,0,0,1,12.54,1.45A29,29,0,0,1,149.91,28,23.77,23.77,0,0,1,157,38.32a26.92,26.92,0,0,1,1.25,12.14,29.47,29.47,0,0,0-2.66-11.57A23.49,23.49,0,0,0,148.29,30a27.71,27.71,0,0,0-10.4-4.7,36.5,36.5,0,0,0-11.47-.78,32.35,32.35,0,0,0-11,2.67A24.65,24.65,0,0,0,110.6,30a27.62,27.62,0,0,0-4.2,3.75,35.52,35.52,0,0,0-3.48,4.55,43.51,43.51,0,0,0-2.75,5.14A49.58,49.58,0,0,0,96.7,54.86Z"/><path class="cls-14" d="M97.31,66.16s-1.82,14.58,18.44,17.61"/><path class="cls-2" d="M120.15,85c-.25,1.33-2.3,2.06-4.59,1.63s-3.94-1.86-3.69-3.19,2.31-2.06,4.6-1.63S120.4,83.71,120.15,85Z"/><path class="cls-2" d="M110.58,60.91c.06,7.6-5.12,13.8-11.58,13.85S87.28,68.69,87.22,61.09s5.13-13.8,11.58-13.85S110.52,53.31,110.58,60.91Z"/><ellipse class="cls-5" cx="97.65" cy="61" rx="11.68" ry="13.76" transform="translate(-0.46 0.74) rotate(-0.43)"/><path class="cls-2" d="M105.13,60.94c0,4.87-3.28,8.84-7.41,8.87s-7.52-3.89-7.55-8.76,3.28-8.84,7.41-8.87S105.1,56.07,105.13,60.94Z"/><path d="M123.8,16.44a15.45,15.45,0,0,0-2-11.66,10.32,10.32,0,0,0-3.43-3.49c-2.36-1.37-5.26-1.39-8-1.21a24.8,24.8,0,0,0-7.31,1.35A13.88,13.88,0,0,0,95.4,8.59,11.73,11.73,0,0,0,95.8,19a10.19,10.19,0,0,0,8.92,5.13"/><path class="cls-12" d="M111.27,97.51a6,6,0,0,0-2,1.87,4.46,4.46,0,0,0-.63,2.65,31.23,31.23,0,0,0,1.24,5.42c1,3.58,2.11,7.14,3.23,10.7,2.2,7.11,4.51,14.2,6.85,21.28l7,21.21,7.18,21.17-1,.12,4.41-43.45,2.29-21.71,1.19-10.85.3-2.71a6.53,6.53,0,0,0,0-2.68,6.2,6.2,0,0,0-3.53-3.9,6.29,6.29,0,0,1,3.65,3.86,6.67,6.67,0,0,1,.11,2.74l-.24,2.72-.95,10.87-2,21.74L134.18,182l-.22,2.32-.74-2.21-7.11-21.21c-2.33-7.08-4.69-14.15-6.92-21.26s-4.47-14.23-6.59-21.38c-1-3.58-2.07-7.16-3-10.78a29.78,29.78,0,0,1-1.13-5.48,4.44,4.44,0,0,1,.71-2.68A6,6,0,0,1,111.27,97.51Z"/><path class="cls-7" d="M102.72,191.08h0A123.78,123.78,0,0,0,113,162.48c3.25-14.67,2.76-20.85,3.64-33.18,0,0-12.34-13.67-15.05-2.59C96.85,146,79.55,163.45,77,176.52c-3.39,17.61,25.7,15.23,25.7,15.23"/><path class="cls-7" d="M116.85,104.81a19.35,19.35,0,0,1,4.09-5c2.33-2.25-1.43-4.66-5.66-.63.81-1.11,2.12-2,2.47-2.79,1.71-2.48-5.48-4-11.28,6.74a9.79,9.79,0,0,1,0-5.14c.38-1.42,1.81-4.87.71-6.39s-3.27,2.72-4.31,4.71-3.12,8.7-1.22,17.14-2.28,20-2.28,20l6.73.73,6.53,1.28s3.63-.75,3.64-1.45c.13-1.19.36-5.1,1.37-6.74,3.41-5.5,4.29-8.51,2.66-13.29s2-7.82,3.7-10C125.6,102,120.65,100.05,116.85,104.81Z"/><path class="cls-11" d="M116.74,133.28c0,.06,0,.12,0,.17,0,.23,0,.43-.06.59-.06,1.16-.12,2.29-.18,3.4a128.67,128.67,0,0,1-3.18,25.12,123.34,123.34,0,0,1-9.77,27.61l.08.12-.11.19-.32.5-.13.19,0,.9-.33,0-.3,0c-4.27,6.53-10.72,14.16-17.54,14.16h-.38c-7,0-12.71-2.59-16.92-7.64-4.84-5.81-7.18-14.32-8.17-23l.58-.32.07,0c.95,8.62,3.25,17.12,8.05,22.88,4.07,4.88,9.59,7.37,16.4,7.4,5.23.24,11.42-4.75,17.43-14l.1-.14h.3V191l0-.08.21-.33.19-.3,0-.08.09-.18a122.69,122.69,0,0,0,9.8-27.64,127.87,127.87,0,0,0,3.16-25c0-.87.1-1.77.14-2.7h0Z"/><path class="cls-11" d="M124.32,104.16c-.25.32-.54.66-.84,1a13,13,0,0,0-2.94,4.64,6.58,6.58,0,0,0,.14,4.07c1.74,5.08.57,8.3-2.7,13.58-.8,1.3-1.1,4.26-1.24,5.82l-.8,1.41c0-.24,0-.47,0-.71s0-.36.06-.59c.15-1.68.44-4.8,1.36-6.29,3.57-5.78,4.14-8.57,2.63-13a7.15,7.15,0,0,1,0-4.79,14,14,0,0,1,3-4.58c.3-.35.59-.68.83-1a.7.7,0,0,0-.11-1.1c-1-.76-4-.85-6.55,2.4l-.56-.39a19.28,19.28,0,0,1,4.16-5.07c.63-.61.77-1.28.34-1.72-.74-.78-3-.8-5.54,1.61L115,99a10.61,10.61,0,0,1,1.32-1.42,5.32,5.32,0,0,0,1.12-1.31.83.83,0,0,0,.17-.81,1.45,1.45,0,0,0-1.29-.5h0c-1.77,0-4.45,1.28-7.1,4.64a25.65,25.65,0,0,0-2.42,3.71l-.41.75-.22-.82a9.33,9.33,0,0,1-.2-4.12,10.24,10.24,0,0,1,.25-1.2c.07-.26.17-.58.28-1,.48-1.51,1.28-4,.48-5.15-.12-.17-.22-.17-.26-.16-1,.07-2.85,3.65-3.47,4.82a15.72,15.72,0,0,0-1.09,3.19h0A30.1,30.1,0,0,0,102,113.4c1.8,8-1.82,18.79-2.23,20-3,7.9-7.63,15.25-12.06,22.36-1.84,3-3.58,5.76-5.13,8.47l-3.21,5.95-.65,1.21-.61-.33.44-.82L82,163.88c1.56-2.73,3.3-5.53,5.15-8.49,4.41-7.08,9-14.41,12-22.23.41-1.18,4-11.81,2.2-19.61a30.89,30.89,0,0,1,0-13.75,17.16,17.16,0,0,1,1.24-3.62c1.6-3.06,2.9-5.12,4-5.2a1,1,0,0,1,.87.44c1,1.39.17,4-.38,5.77-.11.35-.21.67-.27.92a6.76,6.76,0,0,0-.2.93,8.86,8.86,0,0,0,0,3.16,26,26,0,0,1,2.07-3c2.81-3.53,5.7-4.87,7.62-4.87h0a2,2,0,0,1,1.89.87,1.39,1.39,0,0,1-.18,1.46,2.66,2.66,0,0,1-.33.53c1.76-.75,3.19-.45,3.85.23s.76,1.61-.38,2.72a15.47,15.47,0,0,0-2.37,2.46c2.13-1.37,4.25-1.29,5.29-.46A1.38,1.38,0,0,1,124.32,104.16Z"/><path class="cls-10" d="M118.55,97.2c-.9,0-6.31,3.09-9,11.6"/><path class="cls-10" d="M120.8,102c-4.28,1-7,7.38-6.76,11.37"/><path class="cls-9" d="M76.8,181a14.71,14.71,0,0,1,.38-7.5,17.61,17.61,0,0,1,1.46-3.5,17.11,17.11,0,0,1,2.16-3.09c-.59,1.11-1.18,2.2-1.68,3.33a28.17,28.17,0,0,0-1.29,3.46,25.83,25.83,0,0,0-.79,3.59A20.84,20.84,0,0,0,76.8,181Z"/><g class="cls-15"><rect x="100.94" y="156.11" width="111.65" height="73.11" rx="6.27"/><rect x="101.56" y="229.22" width="110.42" height="4.19" rx="1.26"/><path class="cls-16" d="M168.94,190.41a6.82,6.82,0,0,1-3,.7,7,7,0,0,1-7-7,6.79,6.79,0,0,1,.62-2.85A12.54,12.54,0,0,1,168.94,190.41Z"/><path class="cls-16" d="M164.71,193.31a7.95,7.95,0,1,1-15.89,0v-.25a8,8,0,0,1,8-7.69,7.5,7.5,0,0,1,1.72.19,4.35,4.35,0,0,0-.38,1.81,4.44,4.44,0,0,0,4.44,4.45,4.24,4.24,0,0,0,1.92-.44,7.74,7.74,0,0,1,.24,1.68Z"/><path d="M164.71,192.81v.25a7.95,7.95,0,0,1-15.89,0v-.25a7.93,7.93,0,0,1,9.91-7.7,3.21,3.21,0,0,0-.24.45,4.35,4.35,0,0,0-.38,1.81,4.44,4.44,0,0,0,4.44,4.45,4.24,4.24,0,0,0,1.92-.44l.11,0A9,9,0,0,1,164.71,192.81Z"/><line class="cls-16" x1="109.03" y1="229.22" x2="205.33" y2="229.22"/></g><rect class="cls-2" x="106.31" y="156.11" width="111.65" height="73.11" rx="6.27"/><rect class="cls-2" x="106.92" y="229.22" width="110.42" height="4.19" rx="1.26"/><path class="cls-17" d="M174.3,190.41a6.82,6.82,0,0,1-3,.7,7,7,0,0,1-7-7,6.79,6.79,0,0,1,.62-2.85A12.54,12.54,0,0,1,174.3,190.41Z"/><path class="cls-18" d="M170.08,193.31a7.95,7.95,0,0,1-15.9,0,2.09,2.09,0,0,1,0-.25,7.94,7.94,0,0,1,7.94-7.69,7.64,7.64,0,0,1,1.73.19,4.35,4.35,0,0,0-.39,1.81,4.45,4.45,0,0,0,4.45,4.45,4.27,4.27,0,0,0,1.92-.44,7.17,7.17,0,0,1,.23,1.68A2.09,2.09,0,0,1,170.08,193.31Z"/><path d="M170.08,192.81a2.09,2.09,0,0,1,0,.25,7.94,7.94,0,0,1-15.88,0,2.09,2.09,0,0,1,0-.25,7.93,7.93,0,0,1,9.91-7.7,3.17,3.17,0,0,0-.23.45,4.35,4.35,0,0,0-.39,1.81,4.45,4.45,0,0,0,4.45,4.45,4.27,4.27,0,0,0,1.92-.44l.1,0A8.07,8.07,0,0,1,170.08,192.81Z"/><g class="cls-19"><path class="cls-20" d="M112.52,229.22c8.37-.2,16.73-.3,25.1-.38l25.1-.11,25.11.11,12.55.14,12.55.24-12.55.24-12.55.14-25.11.12-25.1-.12C129.25,229.52,120.89,229.43,112.52,229.22Z"/></g><line class="cls-8" x1="205.35" y1="148.25" x2="201.32" y2="122.06"/><line class="cls-8" x1="218.72" y1="134.79" x2="220.19" y2="129.06"/><line class="cls-8" x1="214.84" y1="150.86" x2="218.1" y2="138.12"/><line class="cls-8" x1="223.24" y1="153.05" x2="245.48" y2="133.06"/><rect class="cls-5" x="203.19" y="84.08" width="54.57" height="38.41" rx="3.28" transform="translate(36.74 -58.74) rotate(15.77)"/><polyline class="cls-21" points="210.69 79.19 228.26 111.13 259.93 93.09"/><line class="cls-21" x1="200.59" y1="112.62" x2="221.52" y2="98.88"/><line class="cls-21" x1="251.15" y1="126.9" x2="240.47" y2="104.18"/><rect class="cls-6" y="2.35" width="72.43" height="35.54" rx="3.44" transform="translate(72.43 40.25) rotate(180)"/><g class="cls-22"><line class="cls-14" x1="8.37" y1="27.34" x2="23.41" y2="27.34"/><line class="cls-14" x1="53.46" y1="21.98" x2="63.64" y2="21.98"/><line class="cls-14" x1="8.37" y1="21.98" x2="49.05" y2="21.98"/><line class="cls-14" x1="8.37" y1="16.62" x2="63.64" y2="16.62"/><line class="cls-14" x1="46.6" y1="11.26" x2="63.64" y2="11.26"/><line class="cls-14" x1="8.37" y1="11.26" x2="42.35" y2="11.26"/><line class="cls-14" x1="27.8" y1="27.34" x2="63.64" y2="27.34"/></g><polygon class="cls-6" points="60.34 37.9 66.94 45.92 66.94 37.9 60.34 37.9"/></g></g></g></svg>