<svg xmlns="http://www.w3.org/2000/svg" viewBox="0 0 48 48"><defs><style>.cls-1{fill:#bc6ff1;fill-rule:evenodd;}</style></defs><g id="Layer_2" data-name="Layer 2"><g id="Layer_1-2" data-name="Layer 1"><path class="cls-1" d="M24,0A24,24,0,1,0,48,24,24,24,0,0,0,24,0ZM11.52,19.88H17V36.22H11.52Zm5.8-5.06a2.83,2.83,0,0,0-3-2.82,2.83,2.83,0,1,0-.07,5.65h0A2.84,2.84,0,0,0,17.32,14.82Zm13,4.67c3.58,0,6.27,2.34,6.27,7.36v9.37H31.14V27.48c0-2.2-.79-3.7-2.76-3.7a3,3,0,0,0-2.79,2,3.77,3.77,0,0,0-.18,1.32v9.13H20S20,21.41,20,19.88h5.44v2.31A5.41,5.41,0,0,1,30.31,19.49Z"/></g></g></svg>